<svg width="600" height="400" viewBox="0 0 600 400" fill="none" xmlns="http://www.w3.org/2000/svg">
  <!-- Background -->
  <rect width="600" height="400" fill="url(#grad1)"/>
  
  <!-- Gradient Definition -->
  <defs>
    <linearGradient id="grad1" x1="0%" y1="0%" x2="100%" y2="100%">
      <stop offset="0%" style="stop-color:#3B82F6;stop-opacity:0.1" />
      <stop offset="50%" style="stop-color:#8B5CF6;stop-opacity:0.1" />
      <stop offset="100%" style="stop-color:#06B6D4;stop-opacity:0.1" />
    </linearGradient>
    <linearGradient id="grad2" x1="0%" y1="0%" x2="100%" y2="0%">
      <stop offset="0%" style="stop-color:#3B82F6" />
      <stop offset="100%" style="stop-color:#8B5CF6" />
    </linearGradient>
  </defs>
  
  <!-- People Learning -->
  <g transform="translate(50, 80)">
    <!-- Person 1 with laptop -->
    <circle cx="80" cy="60" r="20" fill="#3B82F6" opacity="0.8"/>
    <rect x="60" y="85" width="40" height="30" rx="5" fill="#E5E7EB"/>
    <rect x="65" y="90" width="30" height="20" rx="2" fill="#3B82F6"/>
    <rect x="67" y="92" width="26" height="16" rx="1" fill="#DBEAFE"/>
    
    <!-- Person 2 with books -->
    <circle cx="200" cy="60" r="20" fill="#10B981" opacity="0.8"/>
    <rect x="185" y="85" width="30" height="35" rx="3" fill="#F59E0B"/>
    <rect x="190" y="85" width="20" height="35" rx="2" fill="#FBBF24"/>
    
    <!-- Person 3 presenting -->
    <circle cx="320" cy="60" r="20" fill="#8B5CF6" opacity="0.8"/>
    <rect x="350" y="50" width="60" height="40" rx="5" fill="#F3F4F6"/>
    <rect x="355" y="55" width="50" height="30" rx="2" fill="#8B5CF6" opacity="0.3"/>
    
    <!-- Person 4 with tablet -->
    <circle cx="440" cy="60" r="20" fill="#F59E0B" opacity="0.8"/>
    <rect x="425" y="85" width="30" height="25" rx="3" fill="#374151"/>
    <rect x="427" y="87" width="26" height="21" rx="2" fill="#DBEAFE"/>
  </g>
  
  <!-- Learning Elements -->
  <g transform="translate(100, 200)">
    <!-- Lightbulb (Innovation) -->
    <circle cx="80" cy="50" r="25" fill="#FEF3C7" stroke="#F59E0B" stroke-width="3"/>
    <path d="M80 30 L80 45 M70 40 L90 40 M75 35 L85 35" stroke="#F59E0B" stroke-width="2" stroke-linecap="round"/>
    
    <!-- Graduation Cap -->
    <rect x="180" y="40" width="40" height="20" rx="3" fill="#1F2937"/>
    <rect x="170" y="35" width="60" height="5" rx="2" fill="#1F2937"/>
    <rect x="215" y="30" width="8" height="15" fill="#F59E0B"/>
    
    <!-- Graph/Chart -->
    <rect x="280" y="30" width="50" height="40" rx="3" fill="#DBEAFE" stroke="#3B82F6" stroke-width="2"/>
    <path d="M290 60 L300 45 L310 50 L320 35" stroke="#3B82F6" stroke-width="3" fill="none"/>
    <circle cx="290" cy="60" r="2" fill="#3B82F6"/>
    <circle cx="300" cy="45" r="2" fill="#3B82F6"/>
    <circle cx="310" cy="50" r="2" fill="#3B82F6"/>
    <circle cx="320" cy="35" r="2" fill="#3B82F6"/>
    
    <!-- Globe/Network -->
    <circle cx="380" cy="50" r="25" fill="#ECFDF5" stroke="#10B981" stroke-width="3"/>
    <path d="M355 50 Q380 30 405 50 M355 50 Q380 70 405 50 M380 25 L380 75 M360 35 L400 35 M360 65 L400 65" 
          stroke="#10B981" stroke-width="2" fill="none"/>
  </g>
  
  <!-- Floating Elements -->
  <g opacity="0.6">
    <circle cx="50" cy="150" r="8" fill="#3B82F6"/>
    <circle cx="550" cy="100" r="6" fill="#8B5CF6"/>
    <circle cx="520" cy="250" r="10" fill="#10B981"/>
    <circle cx="80" cy="300" r="7" fill="#F59E0B"/>
    
    <!-- Geometric shapes -->
    <rect x="480" y="320" width="15" height="15" fill="#EC4899" transform="rotate(45 487.5 327.5)"/>
    <polygon points="30,250 45,225 60,250" fill="#06B6D4"/>
  </g>
  
  <!-- Connection Lines -->
  <g stroke="#E5E7EB" stroke-width="2" opacity="0.4">
    <path d="M130 140 Q200 120 270 140" fill="none" stroke-dasharray="5,5"/>
    <path d="M370 140 Q420 160 470 140" fill="none" stroke-dasharray="5,5"/>
    <path d="M150 250 Q300 230 450 250" fill="none" stroke-dasharray="5,5"/>
  </g>
</svg>